<svg xmlns="http://www.w3.org/2000/svg">
    <symbol id="icon-cart" viewBox="0 0 20 27">
        <path  d="M1494 61v15a3 3 0 0 1-3 3h-12a3 3 0 0 1-3-3V61a3 3 0 0 1 3-3h1.5c0-1.66 2.01-3 4.5-3 2.48 0 4.5 1.34 4.5 3h1.5a3 3 0 0 1 3 3zm-12-3h6c0-1.04-1.34-1.5-3-1.5s-3 .46-3 1.5zm10.5 16.5h-15V76c0 .82.67 1.5 1.5 1.5h12c.82 0 1.5-.68 1.5-1.5zm0-13.5c0-.83-.68-1.5-1.5-1.5h-1.5V64h-1.5v-4.5h-6V64h-1.5v-4.5h-1.5c-.83 0-1.5.67-1.5 1.5v12h15z" transform="translate(-1475 -53)"/>
    </symbol>
    <symbol id="icon-search"  viewBox="0 0 27 28">
        <path d="M1545.76 78.76c-.3.3-.8.3-1.1 0l-6.21-6.12a10.15 10.15 0 0 1-6.36 2.22c-5.57 0-10.09-4.44-10.09-9.93 0-5.49 4.52-9.93 10.1-9.93 5.57 0 10.09 4.44 10.09 9.93 0 2.56-1 4.9-2.62 6.66l6.2 6.1c.3.29.3.77 0 1.07zm-5.13-13.83c0-4.64-3.82-8.4-8.54-8.4a8.47 8.47 0 0 0-8.54 8.4c0 4.64 3.83 8.4 8.54 8.4a8.47 8.47 0 0 0 8.54-8.4z" transform="translate(-1521 -53)"/>
    </symbol>
    <symbol id="pic-design" viewBox="0 0 51 51">
        <path d="M534.67 1123.72l-14.27 14.27-32.87 14.47 14.48-32.87 14.27-14.26a1.59 1.59 0 1 1 2.25 2.25l-13.85 13.84-8.57 19.47 3 3 19.46-8.58 13.85-13.84a1.59 1.59 0 1 1 2.25 2.25zm-20.17 6.5l13.33-13.34a1.59 1.59 0 1 1 2.25 2.25l-13.33 13.34a1.6 1.6 0 0 1-2.25 0 1.6 1.6 0 0 1 0-2.25zm-3.48-3.49l13.33-13.33a1.59 1.59 0 1 1 2.25 2.25L513.26 1129a1.6 1.6 0 0 1-2.24-2.26zm-3.49-3.48l13.34-13.33a1.59 1.59 0 1 1 2.25 2.25l-13.34 13.33a1.59 1.59 0 0 1-2.25 0 1.6 1.6 0 0 1 0-2.25z" transform="translate(-486 -1103)"/>
    </symbol>
    <symbol id="pic-development" viewBox="0 0 46 42">
        <path d="M833.29 1124.67l-21.44 11.56-21.44-11.56 21.44-11.56zm-3.99 5.88l3.99 2.15-21.44 11.55-21.44-11.55 3.99-2.15 17.45 9.4zm0 8.02l3.99 2.15-21.44 11.56-21.44-11.56 3.99-2.15 17.45 9.41z" transform="translate(-789 -1112)"/>
    </symbol>
    <symbol id="pic-customization" viewBox="0 0 46 46">
        <path d="M1130.32 1133.71c-1.44.51-2.84 1.76-3.24 2.74-.4.98-.3 2.85.36 4.23a4.33 4.33 0 0 1-.89 4.58 4.32 4.32 0 0 1-4.57.88c-1.38-.65-3.25-.76-4.24-.35-.98.4-2.22 1.8-2.73 3.24a4.33 4.33 0 0 1-3.87 2.6 4.33 4.33 0 0 1-3.86-2.6c-.51-1.44-1.76-2.83-2.74-3.24-.98-.4-2.85-.3-4.23.35a4.32 4.32 0 0 1-4.57-.88 4.33 4.33 0 0 1-.89-4.58c.66-1.38.76-3.25.36-4.23-.41-.98-1.8-2.23-3.24-2.74a4.33 4.33 0 0 1-2.61-3.86 4.32 4.32 0 0 1 2.6-3.86c1.45-.5 2.84-1.76 3.24-2.74.41-.98.3-2.85-.35-4.23a4.33 4.33 0 0 1 .89-4.58 4.33 4.33 0 0 1 4.57-.88c1.38.65 3.25.76 4.23.35.98-.4 2.23-1.8 2.74-3.24a4.33 4.33 0 0 1 3.86-2.6 4.33 4.33 0 0 1 3.87 2.6c.5 1.44 1.75 2.84 2.74 3.24.98.41 2.85.3 4.23-.35a4.33 4.33 0 0 1 4.57.88 4.33 4.33 0 0 1 .89 4.58c-.66 1.38-.76 3.25-.36 4.23.4.99 1.8 2.23 3.24 2.74 1.44.51 2.6 2.24 2.6 3.86a4.33 4.33 0 0 1-2.6 3.86zm-11.2-3.85a7.99 7.99 0 1 0-15.96-.02 7.99 7.99 0 0 0 15.97.02z" transform="translate(-1088 -1107)"/>
    </symbol>
    <symbol id="pic-marketing" viewBox="0 0 55 38">
        <path d="M1388.74 1146.15v-22.17c0-1.36 1.1-2.48 2.46-2.48H1402v-1.44a3.7 3.7 0 0 1 3.7-3.73h6.28a3.7 3.7 0 0 1 3.68 3.73v1.44h10.82a2.48 2.48 0 0 1 2.46 2.48v1.66h-26.2a6.8 6.8 0 0 0-5.75 3.6zm15.73-24.65h8.75v-1.44c0-.69-.55-1.24-1.23-1.24h-6.3c-.32 0-.63.12-.86.36-.23.24-.36.55-.36.88zm25.45 28.26a4.33 4.33 0 0 1-3.54 2.22h-35.3c-1.35 0-1.97-1-1.37-2.22l9.5-19.42a4.32 4.32 0 0 1 3.53-2.22h35.3c1.35 0 1.97 1 1.37 2.22z" transform="translate(-1387 -1115)"/>
    </symbol>
    <symbol id="icon-link" viewBox="0 0 28 28">
        <path d="M943.5 2652.24l-1.93 1.93-3.18 3.19a6.24 6.24 0 0 1-8.74 0l2.63-2.65c.96.96 2.51.96 3.46 0l2.03-2.02 3.09-3.1a2.45 2.45 0 0 0-3.46-3.45l-2.46 2.45a7.07 7.07 0 0 0-4.9-.37l4.72-4.73a6.18 6.18 0 1 1 8.74 8.75zm-7.65 7.6l-4.62 4.68a6.2 6.2 0 0 1-8.75 0 6.2 6.2 0 0 1 0-8.75l5.12-5.11c.07-.07.15-.16.24-.23a6.2 6.2 0 0 1 8.5.23l-2.64 2.64a2.45 2.45 0 0 0-3.46 0l-5.11 5.12a2.45 2.45 0 0 0 3.46 3.46l2.35-2.36c2 .8 2.55.87 4.9.33z" transform="translate(-919 -2640)"/>
    </symbol>
    <symbol id="icon-zoom" viewBox="0 0 29 27">
        <path d="M991.42 2648.85c.32.64.04 1.42-.61 1.73-.19.09-.38.13-.58.13-.48 0-.95-.27-1.18-.73a4.15 4.15 0 0 0-3.75-2.3 1.3 1.3 0 0 1-1.31-1.3c0-.72.59-1.3 1.31-1.3a6.76 6.76 0 0 1 6.12 3.77zm8.04 16.32c-.32.32-.75.48-1.17.48-.42 0-.84-.16-1.16-.48l-4.34-4.27a11.22 11.22 0 0 1-6.83 2.32 11.11 11.11 0 0 1-11.18-11.02c0-6.07 5.01-11.01 11.18-11.01 6.16 0 11.18 4.94 11.18 11.01 0 2.37-.77 4.56-2.07 6.36l4.39 4.32a1.6 1.6 0 0 1 0 2.3zm-13.5-4.54a8.58 8.58 0 0 0 6.76-3.3 8.29 8.29 0 0 0 1.79-5.13 8.5 8.5 0 0 0-8.55-8.42 8.5 8.5 0 0 0-8.55 8.42 8.5 8.5 0 0 0 8.55 8.43z" transform="translate(-973 -2640)"/>
    </symbol>
</svg>
